<svg width="38" height="32" viewBox="0 0 38 32" fill="none" xmlns="http://www.w3.org/2000/svg">
<g clip-path="url(#clip0_5874_14448)">
<g clip-path="url(#clip1_5874_14448)">
<path fill-rule="evenodd" clip-rule="evenodd" d="M0.866699 21.3455V0H37.0731V21.3455L18.9699 31.9145L0.866699 21.3455Z" fill="black"/>
<path d="M1.78418 0.934082V20.8006L18.9529 30.8507L18.9614 30.8593H18.9869L36.1301 20.8093L36.1471 20.8006V0.95138L1.78418 0.934082Z" fill="white"/>
<path d="M34.9238 2.11035H3.00751V12.4977H34.9238V2.11035Z" fill="#008D5C"/>
<path fill-rule="evenodd" clip-rule="evenodd" d="M3.00751 13.6221V20.1779L18.9699 29.5101L34.9238 20.1779V13.6221H3.00751Z" fill="#ED1B2F"/>
<path d="M21.5694 26.3706V14.8762C21.5694 14.8416 21.5439 14.8156 21.5099 14.8156H20.3631C20.3291 14.8156 20.3036 14.8416 20.3036 14.8762V25.67L18.9699 26.4138L17.6362 25.67V14.8762C17.6362 14.8416 17.6107 14.8156 17.5767 14.8156H16.4213C16.4044 14.8156 16.3874 14.8243 16.3789 14.8329C16.3704 14.8416 16.3619 14.8589 16.3619 14.8762V26.3706C16.3619 26.3879 16.3704 26.4138 16.3959 26.4225L18.9444 27.9101C18.9614 27.9187 18.9869 27.9187 19.0039 27.9101L21.5439 26.4225C21.5609 26.4138 21.5694 26.3879 21.5694 26.3706Z" fill="white"/>
<path d="M14.4929 25.3154C14.5099 25.324 14.5269 25.324 14.5439 25.3154C14.5609 25.3067 14.5694 25.2808 14.5694 25.2635V24.0181C14.5694 23.9921 14.5609 23.9748 14.5354 23.9662L12.0973 22.6083V19.5985L14.289 20.1693C14.306 20.1693 14.3315 20.1433 14.3315 20.1088V18.8806C14.3315 18.8547 14.306 18.8287 14.272 18.8201L12.0973 18.3271V15.94H14.5099C14.5439 15.94 14.5694 15.914 14.5694 15.8794V14.8762C14.5694 14.8416 14.5439 14.8156 14.5099 14.8156H10.9249C10.891 14.8156 10.8655 14.8416 10.8655 14.8762V23.1618C10.8655 23.1878 10.874 23.2051 10.891 23.2137L14.4929 25.3154Z" fill="white"/>
<path d="M27.3036 23.0148V21.8904C27.3036 21.8731 27.2951 21.8472 27.2781 21.8385C27.2611 21.8299 27.2357 21.8299 27.2187 21.8385L24.823 23.1705V19.8579L27.0573 19.2785C27.0827 19.2698 27.0997 19.2439 27.0997 19.2179V18.1195C27.0997 18.1022 27.0912 18.0849 27.0742 18.0763C27.0657 18.0676 27.0488 18.059 27.0403 18.059L24.823 18.5519V15.94H27.2441C27.2781 15.94 27.3036 15.914 27.3036 15.8794V14.8762C27.3036 14.8416 27.2781 14.8156 27.2441 14.8156H23.6677C23.6337 14.8156 23.6082 14.8416 23.6082 14.8762V25.1165C23.6082 25.1338 23.6167 25.1597 23.6337 25.1684C23.6507 25.177 23.6762 25.177 23.6932 25.1684L27.2696 23.0667C27.2866 23.058 27.3036 23.0407 27.3036 23.0148Z" fill="white"/>
<path d="M7.86672 21.432L8.85216 22.0115C8.86915 22.0201 8.89463 22.0201 8.91162 22.0115C8.92861 22.0028 8.93711 21.9769 8.93711 21.9596V14.8675C8.93711 14.8329 8.91162 14.8069 8.87764 14.8069H7.8922C7.85822 14.8069 7.83274 14.8329 7.83274 14.8675V17.367L5.45409 16.8308V14.8761C5.45409 14.8415 5.42861 14.8156 5.39462 14.8156H4.41768C4.40069 14.8156 4.3837 14.8242 4.37521 14.8329C4.36671 14.8415 4.35822 14.8588 4.35822 14.8761V19.3563C4.35822 19.3822 4.36671 19.3995 4.3922 19.4082L5.36914 19.9703C5.38613 19.979 5.41162 19.979 5.42861 19.9703C5.4456 19.9617 5.45409 19.9358 5.45409 19.9185V17.86L7.83274 18.4827V21.3801C7.83274 21.4061 7.84973 21.4234 7.86672 21.432Z" fill="white"/>
<path d="M29.1726 21.925C29.1896 21.9337 29.2151 21.9337 29.232 21.925L30.2515 21.3369L30.26 21.3282V18.4568L30.8546 18.3011L32.6216 19.8925C32.6386 19.9185 32.6726 19.9271 32.6981 19.9098L33.5901 19.3822C33.6071 19.3736 33.6155 19.3563 33.6155 19.339C33.6155 19.3303 33.6155 19.3131 33.6155 19.3044L32.0779 17.9811L33.1653 17.6957C33.5306 17.6006 33.5816 17.4276 33.5816 17.0557V15.2308C33.5391 14.9626 33.3522 14.8156 33.0804 14.8156C33.0634 14.8156 33.0464 14.8156 33.0379 14.8156H29.2066C29.1811 14.8156 29.1471 14.8502 29.1471 14.8848V21.8645C29.1471 21.8904 29.1556 21.9077 29.1726 21.925ZM30.26 15.9486H32.3328C32.4262 15.9486 32.5027 16.0265 32.5027 16.1216V16.6578C32.5027 16.7789 32.4772 16.8481 32.3243 16.8827L30.26 17.3411V15.9486Z" fill="white"/>
<path fill-rule="evenodd" clip-rule="evenodd" d="M10.6192 11.183V5.02501H13.9323V3.38171H4.95288V5.02501H8.26599V11.183H10.6192Z" fill="white"/>
<path fill-rule="evenodd" clip-rule="evenodd" d="M32.5536 11.036C30.7527 11.382 28.4335 11.4771 26.7514 10.8284C25.3242 10.3009 24.4408 9.02947 24.2539 7.79267C24.067 6.27046 24.7381 4.93853 26.1738 4.04769C27.8473 3.03577 30.5148 3.06171 32.3413 3.77092V5.46611C30.9565 4.92988 28.8752 4.46284 27.55 5.31908C26.607 5.9418 26.3097 6.91913 26.5476 7.90511C26.7344 8.67486 27.5245 9.37542 28.3995 9.63489C29.0196 9.79922 29.7842 9.85976 30.4723 9.78192V8.51918H29.5633V7.00562H32.5536V11.036Z" fill="white"/>
<path fill-rule="evenodd" clip-rule="evenodd" d="M16.4044 9.65218L15.6143 11.183H13.2187L17.1095 3.38171H19.7939L23.7612 11.183H21.3571L20.5245 9.65218H16.4044ZM18.4772 5.31907L17.05 8.06078H19.8109L18.4772 5.31907Z" fill="white"/>
</g>
</g>
<defs>
<clipPath id="clip0_5874_14448">
<rect width="36.2667" height="32" fill="white" transform="translate(0.866699)"/>
</clipPath>
<clipPath id="clip1_5874_14448">
<rect width="36.2064" height="31.9145" fill="white" transform="translate(0.866699)"/>
</clipPath>
</defs>
</svg>
