<svg version="1.1" xmlns="http://www.w3.org/2000/svg" xmlns:xlink="http://www.w3.org/1999/xlink" viewBox="0 0 100 100" enable-background="new 0 0 100 100" xml:space="preserve">
<g>
	<path fill="none" stroke="#000000" stroke-width="4" stroke-linecap="round" stroke-linejoin="round" d="M60.1,21.9
		c7.9,11,7.9,29.2,0,40.2"/>
	<path fill="none" stroke="#000000" stroke-width="4" stroke-linecap="round" stroke-linejoin="round" d="M39.9,78.1
		c-7.9-11-7.9-29.2,0-40.2"/>
	<path fill="none" stroke="#000000" stroke-width="4" stroke-linecap="round" stroke-linejoin="round" d="M78,50
		c0,15.5-12.5,28-28,28S22,65.5,22,50S34.5,22,50,22S78,34.5,78,50z"/>
	<g>
		<path fill="none" stroke="#000000" stroke-width="3" stroke-linecap="round" stroke-linejoin="round" d="M61,64.1l-1.9-1.9
			c-0.8-0.8-2-1.2-3.1-1.2c-1.2,0-2.3,0.4-3.1,1.2l-1.9,1.9c-0.8,0.8-1.2,2-1.2,3.1c0,1.2,0.4,2.3,1.2,3.1l1.9,1.9
			c0.8,0.8,2,1.2,3.1,1.2s2.3-0.4,3.1-1.2l1.9-1.9c0.8-0.8,1.2-2,1.2-3.1C62.2,66.1,61.8,64.9,61,64.1z"/>
		<path fill="none" stroke="#000000" stroke-width="3" stroke-linecap="round" stroke-linejoin="round" d="M65.7,59.3l1.9-1.9
			c0.8-0.8,2-1.2,3.1-1.2c1.2,0,2.3,0.4,3.1,1.2l1.9,1.9c0.8,0.8,1.2,2,1.2,3.1c0,1.2-0.4,2.3-1.2,3.1l-1.9,1.9
			c-0.8,0.8-2,1.2-3.1,1.2s-2.3-0.4-3.1-1.2l-1.9-1.9c-0.8-0.8-1.2-2-1.2-3.1C64.5,61.3,64.9,60.1,65.7,59.3z"/>
		<path fill="none" stroke="#000000" stroke-width="3" stroke-linecap="round" stroke-linejoin="round" d="M70.3,54.6l1.9-1.9
			c0.8-0.8,2-1.2,3.1-1.2s2.3,0.4,3.1,1.2l1.9,1.9c0.8,0.8,1.2,2,1.2,3.1c0,1.2-0.4,2.3-1.2,3.1l-1.9,1.9c-0.8,0.8-2,1.2-3.1,1.2
			c-1.2,0-2.3-0.4-3.1-1.2l-1.9-1.9c-0.8-0.8-1.2-2-1.2-3.1C69.1,56.6,69.5,55.4,70.3,54.6z"/>
		<path fill="none" stroke="#000000" stroke-width="3" stroke-linecap="round" stroke-linejoin="round" d="M49.8,50l-1.9-1.9
			c-0.8-0.8-2-1.2-3.1-1.2c-1.2,0-2.3,0.4-3.1,1.2l-1.9,1.9c-0.8,0.8-1.2,2-1.2,3.1c0,1.2,0.4,2.3,1.2,3.1l1.9,1.9
			c0.8,0.8,2,1.2,3.1,1.2s2.3-0.4,3.1-1.2l1.9-1.9c0.8-0.8,1.2-2,1.2-3.1C51,52,50.6,50.8,49.8,50z"/>
		<path fill="none" stroke="#000000" stroke-width="3" stroke-linecap="round" stroke-linejoin="round" d="M54.5,45.2l1.9-1.9
			c0.8-0.8,2-1.2,3.1-1.2s2.3,0.4,3.1,1.2l1.9,1.9c0.8,0.8,1.2,2,1.2,3.1c0,1.2-0.4,2.3-1.2,3.1l-1.9,1.9c-0.8,0.8-2,1.2-3.1,1.2
			c-1.2,0-2.3-0.4-3.1-1.2l-1.9-1.9c-0.8-0.8-1.2-2-1.2-3.1C53.3,47.2,53.7,46,54.5,45.2z"/>
		<path fill="none" stroke="#000000" stroke-width="3" stroke-linecap="round" stroke-linejoin="round" d="M45.2,54.8l1.9-1.9
			c0.8-0.8,2-1.2,3.1-1.2s2.3,0.4,3.1,1.2l1.9,1.9c0.8,0.8,1.2,2,1.2,3.1c0,1.2-0.4,2.3-1.2,3.1l-1.9,1.9c-0.8,0.8-2,1.2-3.1,1.2
			c-1.2,0-2.3-0.4-3.1-1.2l-1.9-1.9c-0.8-0.8-1.2-2-1.2-3.1C44,56.8,44.4,55.6,45.2,54.8z"/>
		<circle fill="none" stroke="#000000" stroke-width="3" stroke-linecap="round" stroke-linejoin="round" cx="56.5" cy="67.2" r="1.5"/>
		<circle fill="none" stroke="#000000" stroke-width="3" stroke-linecap="round" stroke-linejoin="round" cx="71.2" cy="59.9" r="1.5"/>
		<circle fill="none" stroke="#000000" stroke-width="3" stroke-linecap="round" stroke-linejoin="round" cx="76.2" cy="55.2" r="1.5"/>
		<circle fill="none" stroke="#000000" stroke-width="3" stroke-linecap="round" stroke-linejoin="round" cx="44.8" cy="53.1" r="1.5"/>
		<circle fill="none" stroke="#000000" stroke-width="3" stroke-linecap="round" stroke-linejoin="round" cx="59.5" cy="45.8" r="1.5"/>
		<circle fill="none" stroke="#000000" stroke-width="3" stroke-linecap="round" stroke-linejoin="round" cx="50.2" cy="55.5" r="1.5"/>
	</g>
</g>
</svg>